# xmcd
#
# Track frame offsets: 
#        150
#        20952
#        38070
#        55997
#        71812
#        89612
#        109700
#        130212
#        146087
#        163080
#
# Disc length: 2437 seconds
#
# Revision: 5
# Processed by: cddbd v1.5.2PL0 Copyright (c) Steve Scherf et al.
# Submitted via: ExactAudioCopy v1.0b3
#
DISCID=9609830a
DTITLE=Craven, Beverley - Mixed Emotions
DYEAR=1999
DGENRE=Pop
TTITLE0=I Miss You
TTITLE1=Tick Tock
TTITLE2=Come Home To Me
TTITLE3=Move On
TTITLE4=We Found A Place
TTITLE5=Say You're Sorry
TTITLE6=Talk To Me
TTITLE7=She Doesn't Need Saving
TTITLE8=Phoenix From The Fire
TTITLE9=Afraid Of Letting Go
EXTD=YEAR: 1999 ID3G:   0
EXTT0=
EXTT1=
EXTT2=
EXTT3=
EXTT4=
EXTT5=
EXTT6=
EXTT7=
EXTT8=
EXTT9=
PLAYORDER=
